<?xml version="1.0" encoding="utf-8"?>
<!-- Generator: Adobe Illustrator 16.0.3, SVG Export Plug-In . SVG Version: 6.00 Build 0)  -->
<!DOCTYPE svg PUBLIC "-//W3C//DTD SVG 1.1//EN" "http://www.w3.org/Graphics/SVG/1.1/DTD/svg11.dtd">
<svg version="1.1" id="Layer_1" xmlns="http://www.w3.org/2000/svg" xmlns:xlink="http://www.w3.org/1999/xlink" x="0px" y="0px"
	 width="100px" height="100px" viewBox="0 0 100 100" enable-background="new 0 0 100 100" xml:space="preserve">
<g>
	<path fill="none" stroke="#000000" stroke-width="2.75" stroke-miterlimit="10" d="M71.793,68.269H26.128
		c-3.085,0-5.555-2.47-5.555-5.556V17.042c0-3.085,2.469-5.555,5.555-5.555h45.665c3.086,0,5.554,2.47,5.554,5.555v45.673
		C77.347,65.799,74.879,68.269,71.793,68.269z"/>
	<path fill="none" stroke="#000000" stroke-width="2.75" stroke-miterlimit="10" d="M67.721,62.097H57.35
		c-1.11,0-1.974-0.863-1.974-1.975V19.634c0-1.112,0.863-1.976,1.974-1.976h10.369c1.111,0,1.974,0.863,1.974,1.976v40.488
		C69.693,61.233,68.83,62.097,67.721,62.097z"/>
	<line fill="none" stroke="#000000" stroke-width="2.75" stroke-miterlimit="10" x1="27.98" y1="38.89" x2="31.93" y2="38.89"/>
	<line fill="none" stroke="#000000" stroke-width="2.75" stroke-miterlimit="10" x1="36.251" y1="38.89" x2="40.2" y2="38.89"/>
	<line fill="none" stroke="#000000" stroke-width="2.75" stroke-miterlimit="10" x1="44.644" y1="38.89" x2="48.594" y2="38.89"/>
	<line fill="none" stroke="#000000" stroke-width="2.75" stroke-miterlimit="10" x1="27.98" y1="45.432" x2="31.93" y2="45.432"/>
	<line fill="none" stroke="#000000" stroke-width="2.75" stroke-miterlimit="10" x1="36.251" y1="45.432" x2="40.2" y2="45.432"/>
	<line fill="none" stroke="#000000" stroke-width="2.75" stroke-miterlimit="10" x1="44.644" y1="45.432" x2="48.594" y2="45.432"/>
	<line fill="none" stroke="#000000" stroke-width="2.75" stroke-miterlimit="10" x1="27.98" y1="52.097" x2="31.93" y2="52.097"/>
	<line fill="none" stroke="#000000" stroke-width="2.75" stroke-miterlimit="10" x1="36.251" y1="52.097" x2="40.2" y2="52.097"/>
	<line fill="none" stroke="#000000" stroke-width="2.75" stroke-miterlimit="10" x1="44.644" y1="52.097" x2="48.594" y2="52.097"/>
	<line fill="none" stroke="#000000" stroke-width="2.75" stroke-miterlimit="10" x1="27.98" y1="58.766" x2="31.93" y2="58.766"/>
	<line fill="none" stroke="#000000" stroke-width="2.75" stroke-miterlimit="10" x1="36.251" y1="58.766" x2="40.2" y2="58.766"/>
	<line fill="none" stroke="#000000" stroke-width="2.75" stroke-miterlimit="10" x1="44.644" y1="58.766" x2="48.594" y2="58.766"/>
</g>
</svg>
