<?xml version="1.0" encoding="utf-8"?>
<!-- Generator: Adobe Illustrator 16.0.3, SVG Export Plug-In . SVG Version: 6.00 Build 0)  -->
<!DOCTYPE svg PUBLIC "-//W3C//DTD SVG 1.1//EN" "http://www.w3.org/Graphics/SVG/1.1/DTD/svg11.dtd">
<svg version="1.1" id="Layer_1" xmlns="http://www.w3.org/2000/svg" xmlns:xlink="http://www.w3.org/1999/xlink" x="0px" y="0px"
	 width="159.5px" height="30.5px" viewBox="222.5 380.334 159.5 30.5" enable-background="new 222.5 380.334 159.5 30.5"
	 xml:space="preserve">
<text transform="matrix(1 0 0 1 259.8828 392.8564)" fill="#FFFFFF" font-family="'Gotham-Bold'" font-size="12">Massachusetts </text>
<text transform="matrix(1 0 0 1 259.8828 407.2559)" fill="#FFFFFF" font-family="'Gotham-Bold'" font-size="12">Telephone and Data</text>
<g>
	<circle fill="#0096EA" cx="239.083" cy="395.584" r="15.25"/>
	<g>
		<path fill="#F7F7F7" d="M239.171,391.497L239.171,391.497c1.662,0.011,2.93,0.482,3.326,0.648
			c0.618,0.281,0.621,0.413,0.576,0.721c-0.035,0.214-0.066,0.317-0.13,0.464c1.342,0.676,2.4,1.641,3.083,2.758
			c0.286-0.207,0.688-0.571,1.034-0.983c0.367-0.448,0.676-0.967,0.722-1.367c-0.402-1.575-3.768-4.705-8.61-4.628
			c-0.001,0-0.002,0-0.003,0c-4.842-0.076-8.208,3.053-8.611,4.628c0.045,0.4,0.355,0.919,0.722,1.366
			c0.346,0.413,0.75,0.777,1.032,0.984c0.685-1.119,1.743-2.082,3.086-2.759c-0.065-0.146-0.095-0.249-0.13-0.464
			c-0.047-0.307-0.042-0.439,0.574-0.72C236.238,391.979,237.507,391.507,239.171,391.497L239.171,391.497
			C239.169,391.497,239.17,391.497,239.171,391.497z"/>
		<circle fill="#F7F7F7" cx="239.356" cy="400.078" r="2.014"/>
		<path fill="#F7F7F7" d="M244.417,396.496c-1.119-1.392-3.011-2.311-5.162-2.311c-2.153,0-4.042,0.919-5.162,2.311
			c-0.027,0.035-0.056,0.068-0.082,0.104c-0.008,0.021-0.013,0.043-0.013,0.067c0,0.028,0.005,0.055,0.016,0.08
			c0.018,0.044,0.053,0.08,0.096,0.104l1.142,1.226l0.031,0.034c0.036,0.028,0.082,0.051,0.133,0.051
			c0.032,0,0.062-0.01,0.088-0.022c0.009-0.003,0.017-0.011,0.024-0.016c0.016-0.011,0.032-0.023,0.044-0.039
			c0.003-0.003,0.008-0.005,0.011-0.008c0.605-0.761,1.978-1.636,3.67-1.636c1.691,0,3.065,0.875,3.669,1.636
			c0.003,0.003,0.007,0.005,0.011,0.008c0.013,0.016,0.028,0.028,0.045,0.039c0.008,0.005,0.014,0.013,0.023,0.016
			c0.027,0.014,0.057,0.022,0.088,0.022c0.051,0,0.096-0.021,0.133-0.051l0.031-0.034l1.142-1.226
			c0.043-0.022,0.078-0.06,0.097-0.104c0.01-0.025,0.016-0.052,0.016-0.08c0-0.023-0.005-0.046-0.013-0.067
			C244.472,396.564,244.444,396.531,244.417,396.496z"/>
	</g>
</g>
</svg>
