<?xml version="1.0" encoding="utf-8"?>
<!-- Generator: Adobe Illustrator 16.0.3, SVG Export Plug-In . SVG Version: 6.00 Build 0)  -->
<!DOCTYPE svg PUBLIC "-//W3C//DTD SVG 1.1//EN" "http://www.w3.org/Graphics/SVG/1.1/DTD/svg11.dtd">
<svg version="1.1" id="Layer_1" xmlns="http://www.w3.org/2000/svg" xmlns:xlink="http://www.w3.org/1999/xlink" x="0px" y="0px"
	 width="159.5px" height="30.5px" viewBox="0 0 159.5 30.5" enable-background="new 0 0 159.5 30.5" xml:space="preserve">
<text transform="matrix(1 0 0 1 36.1494 12.4229)" font-family="'Gotham-Bold'" font-size="12">Massachusetts </text>
<text transform="matrix(1 0 0 1 36.1494 26.8223)" font-family="'Gotham-Bold'" font-size="12">Telephone and Data</text>
<g>
	<circle fill="#39ACE6" cx="15.35" cy="15.151" r="15.251"/>
	<g>
		<path fill="#F7F7F7" d="M15.438,11.063L15.438,11.063c1.662,0.011,2.931,0.481,3.326,0.647c0.618,0.281,0.621,0.414,0.576,0.722
			c-0.035,0.214-0.066,0.317-0.13,0.464c1.342,0.676,2.399,1.643,3.082,2.759c0.287-0.206,0.688-0.569,1.035-0.981
			c0.366-0.45,0.676-0.969,0.722-1.369c-0.402-1.575-3.769-4.705-8.61-4.629c-0.001,0-0.002,0-0.003,0
			c-4.842-0.075-8.208,3.054-8.61,4.629c0.045,0.4,0.354,0.919,0.721,1.367c0.347,0.414,0.75,0.777,1.033,0.983
			c0.685-1.118,1.742-2.083,3.086-2.76c-0.065-0.146-0.096-0.249-0.131-0.464c-0.047-0.307-0.041-0.439,0.574-0.721
			C12.505,11.544,13.774,11.073,15.438,11.063L15.438,11.063C15.436,11.063,15.437,11.063,15.438,11.063z"/>
		<circle fill="#F7F7F7" cx="15.623" cy="19.646" r="2.014"/>
		<path fill="#F7F7F7" d="M20.684,16.063c-1.119-1.392-3.011-2.312-5.162-2.312c-2.153,0-4.042,0.92-5.162,2.312
			c-0.026,0.035-0.056,0.068-0.081,0.104c-0.009,0.021-0.014,0.043-0.014,0.067c0,0.028,0.005,0.055,0.016,0.08
			c0.019,0.044,0.053,0.08,0.096,0.104l1.143,1.227l0.031,0.034c0.035,0.027,0.082,0.051,0.133,0.051
			c0.032,0,0.062-0.01,0.088-0.022c0.01-0.003,0.018-0.011,0.023-0.016c0.017-0.011,0.033-0.023,0.045-0.039
			c0.003-0.003,0.008-0.005,0.011-0.008c0.604-0.761,1.978-1.636,3.67-1.636c1.69,0,3.065,0.875,3.669,1.636
			c0.003,0.003,0.008,0.005,0.012,0.008c0.012,0.016,0.027,0.028,0.045,0.039c0.008,0.005,0.014,0.013,0.022,0.016
			c0.026,0.015,0.058,0.022,0.088,0.022c0.052,0,0.097-0.021,0.134-0.051l0.03-0.034l1.142-1.227
			c0.043-0.021,0.078-0.06,0.098-0.104c0.01-0.025,0.016-0.052,0.016-0.08c0-0.023-0.005-0.046-0.013-0.067
			C20.74,16.132,20.71,16.099,20.684,16.063z"/>
	</g>
</g>
</svg>
