<?xml version="1.0" encoding="utf-8"?>
<!-- Generator: Adobe Illustrator 16.0.3, SVG Export Plug-In . SVG Version: 6.00 Build 0)  -->
<!DOCTYPE svg PUBLIC "-//W3C//DTD SVG 1.1//EN" "http://www.w3.org/Graphics/SVG/1.1/DTD/svg11.dtd">
<svg version="1.1" id="Layer_1" xmlns="http://www.w3.org/2000/svg" xmlns:xlink="http://www.w3.org/1999/xlink" x="0px" y="0px"
	 width="189.35px" height="30.502px" viewBox="0.099 -0.001 189.35 30.502" enable-background="new 0.099 -0.001 189.35 30.502"
	 xml:space="preserve">
<g enable-background="new    ">
	<path d="M35.791,10.91h1.991l2.207,3.55l2.207-3.55h1.991v8.396h-1.835v-5.481l-2.363,3.587H39.94l-2.339-3.551v5.445h-1.811V10.91
		z"/>
	<path d="M45.631,17.459v-0.024c0-1.403,1.067-2.051,2.591-2.051c0.647,0,1.115,0.108,1.571,0.264V15.54
		c0-0.756-0.467-1.176-1.379-1.176c-0.696,0-1.188,0.132-1.775,0.348l-0.456-1.391c0.708-0.312,1.403-0.516,2.495-0.516
		c0.996,0,1.715,0.264,2.171,0.719c0.479,0.48,0.696,1.188,0.696,2.052v3.729h-1.763V18.61c-0.444,0.491-1.056,0.815-1.943,0.815
		C46.626,19.426,45.631,18.729,45.631,17.459z M49.817,17.039v-0.324c-0.312-0.144-0.72-0.239-1.164-0.239
		c-0.78,0-1.259,0.312-1.259,0.887v0.024c0,0.492,0.408,0.779,0.996,0.779C49.241,18.166,49.817,17.698,49.817,17.039z"/>
	<path d="M52.615,18.454l0.779-1.199c0.696,0.504,1.427,0.768,2.027,0.768c0.528,0,0.768-0.192,0.768-0.479v-0.024
		c0-0.396-0.624-0.527-1.331-0.743c-0.899-0.265-1.919-0.684-1.919-1.932V14.82c0-1.308,1.055-2.039,2.351-2.039
		c0.815,0,1.703,0.275,2.399,0.743l-0.696,1.26c-0.636-0.372-1.271-0.6-1.739-0.6c-0.443,0-0.671,0.191-0.671,0.443v0.024
		c0,0.359,0.612,0.527,1.307,0.768c0.899,0.3,1.943,0.731,1.943,1.907v0.023c0,1.428-1.067,2.075-2.458,2.075
		C54.474,19.426,53.467,19.126,52.615,18.454z"/>
	<path d="M58.519,18.454l0.779-1.199c0.696,0.504,1.427,0.768,2.027,0.768c0.528,0,0.768-0.192,0.768-0.479v-0.024
		c0-0.396-0.624-0.527-1.331-0.743c-0.899-0.265-1.919-0.684-1.919-1.932V14.82c0-1.308,1.055-2.039,2.351-2.039
		c0.815,0,1.703,0.275,2.399,0.743l-0.696,1.26c-0.636-0.372-1.271-0.6-1.739-0.6c-0.443,0-0.671,0.191-0.671,0.443v0.024
		c0,0.359,0.612,0.527,1.307,0.768c0.899,0.3,1.943,0.731,1.943,1.907v0.023c0,1.428-1.067,2.075-2.458,2.075
		C60.378,19.426,59.371,19.126,58.519,18.454z"/>
	<path d="M70.793,12.613h-2.555V10.91h6.956v1.703h-2.554v6.692h-1.847V12.613z"/>
	<path d="M74.851,16.127v-0.023c0-1.835,1.307-3.347,3.178-3.347c2.146,0,3.13,1.668,3.13,3.49c0,0.145-0.012,0.312-0.024,0.48
		h-4.473c0.18,0.827,0.755,1.259,1.571,1.259c0.612,0,1.056-0.191,1.559-0.659l1.043,0.923c-0.599,0.744-1.462,1.199-2.626,1.199
		C76.278,19.449,74.851,18.095,74.851,16.127z M79.384,15.588c-0.108-0.815-0.587-1.367-1.355-1.367
		c-0.756,0-1.248,0.539-1.392,1.367H79.384z"/>
	<path d="M82.603,10.551h1.823v8.755h-1.823V10.551z"/>
	<path d="M85.83,16.127v-0.023c0-1.835,1.308-3.347,3.179-3.347c2.146,0,3.13,1.668,3.13,3.49c0,0.145-0.012,0.312-0.024,0.48
		h-4.473c0.18,0.827,0.755,1.259,1.57,1.259c0.612,0,1.056-0.191,1.56-0.659l1.043,0.923c-0.6,0.744-1.463,1.199-2.626,1.199
		C87.258,19.449,85.83,18.095,85.83,16.127z M90.363,15.588c-0.107-0.815-0.587-1.367-1.354-1.367c-0.756,0-1.248,0.539-1.392,1.367
		H90.363z"/>
	<path d="M93.498,12.877h1.823v0.924c0.443-0.6,1.055-1.044,2.003-1.044c1.499,0,2.926,1.176,2.926,3.322v0.024
		c0,2.146-1.403,3.322-2.926,3.322c-0.972,0-1.571-0.444-2.003-0.96v2.759h-1.823V12.877z M98.427,16.104v-0.024
		c0-1.067-0.719-1.774-1.57-1.774s-1.56,0.707-1.56,1.774v0.024c0,1.067,0.708,1.775,1.56,1.775S98.427,17.183,98.427,16.104z"/>
	<path d="M101.598,10.551h1.823v3.238c0.419-0.54,0.959-1.032,1.883-1.032c1.379,0,2.183,0.912,2.183,2.387v4.162h-1.823V15.72
		c0-0.863-0.407-1.308-1.104-1.308c-0.695,0-1.139,0.444-1.139,1.308v3.586h-1.823V10.551z"/>
	<path d="M108.762,16.127v-0.023c0-1.847,1.487-3.347,3.49-3.347c1.991,0,3.466,1.476,3.466,3.322v0.024
		c0,1.847-1.487,3.346-3.49,3.346C110.237,19.449,108.762,17.975,108.762,16.127z M113.919,16.127v-0.023
		c0-0.947-0.684-1.775-1.691-1.775c-1.043,0-1.667,0.804-1.667,1.751v0.024c0,0.947,0.684,1.775,1.691,1.775
		C113.295,17.879,113.919,17.075,113.919,16.127z"/>
	<path d="M117.041,12.877h1.823v0.912c0.42-0.54,0.96-1.032,1.883-1.032c1.38,0,2.183,0.912,2.183,2.387v4.162h-1.822V15.72
		c0-0.863-0.408-1.308-1.104-1.308s-1.14,0.444-1.14,1.308v3.586h-1.823V12.877z"/>
	<path d="M124.206,16.127v-0.023c0-1.835,1.307-3.347,3.178-3.347c2.146,0,3.131,1.668,3.131,3.49c0,0.145-0.013,0.312-0.024,0.48
		h-4.474c0.18,0.827,0.756,1.259,1.571,1.259c0.611,0,1.056-0.191,1.559-0.659l1.044,0.923c-0.6,0.744-1.463,1.199-2.627,1.199
		C125.633,19.449,124.206,18.095,124.206,16.127z M128.739,15.588c-0.108-0.815-0.588-1.367-1.355-1.367
		c-0.756,0-1.247,0.539-1.392,1.367H128.739z"/>
	<path d="M135.089,17.459v-0.024c0-1.403,1.067-2.051,2.591-2.051c0.647,0,1.115,0.108,1.571,0.264V15.54
		c0-0.756-0.468-1.176-1.379-1.176c-0.696,0-1.188,0.132-1.775,0.348l-0.456-1.391c0.708-0.312,1.403-0.516,2.495-0.516
		c0.995,0,1.715,0.264,2.171,0.719c0.479,0.48,0.695,1.188,0.695,2.052v3.729h-1.763V18.61c-0.444,0.491-1.056,0.815-1.943,0.815
		C136.085,19.426,135.089,18.729,135.089,17.459z M139.275,17.039v-0.324c-0.312-0.144-0.72-0.239-1.164-0.239
		c-0.779,0-1.259,0.312-1.259,0.887v0.024c0,0.492,0.407,0.779,0.995,0.779C138.699,18.166,139.275,17.698,139.275,17.039z"/>
	<path d="M142.577,12.877h1.823v0.912c0.419-0.54,0.959-1.032,1.883-1.032c1.379,0,2.183,0.912,2.183,2.387v4.162h-1.823V15.72
		c0-0.863-0.407-1.308-1.104-1.308c-0.695,0-1.139,0.444-1.139,1.308v3.586h-1.823V12.877z"/>
	<path d="M149.765,16.104v-0.024c0-2.146,1.403-3.322,2.927-3.322c0.972,0,1.571,0.444,2.003,0.96v-3.166h1.822v8.755h-1.822v-0.924
		c-0.444,0.6-1.056,1.044-2.003,1.044C151.192,19.426,149.765,18.25,149.765,16.104z M154.718,16.104v-0.024
		c0-1.067-0.707-1.774-1.559-1.774s-1.571,0.695-1.571,1.774v0.024c0,1.067,0.72,1.775,1.571,1.775S154.718,17.171,154.718,16.104z"
		/>
	<path d="M161.944,10.91h3.274c2.639,0,4.461,1.812,4.461,4.174v0.024c0,2.362-1.822,4.197-4.461,4.197h-3.274V10.91z
		 M165.219,17.639c1.511,0,2.53-1.02,2.53-2.507v-0.023c0-1.487-1.02-2.531-2.53-2.531h-1.428v5.062H165.219z"/>
	<path d="M170.753,17.459v-0.024c0-1.403,1.067-2.051,2.591-2.051c0.647,0,1.115,0.108,1.57,0.264V15.54
		c0-0.756-0.467-1.176-1.379-1.176c-0.695,0-1.188,0.132-1.774,0.348l-0.456-1.391c0.707-0.312,1.403-0.516,2.494-0.516
		c0.996,0,1.716,0.264,2.171,0.719c0.479,0.48,0.696,1.188,0.696,2.052v3.729h-1.764V18.61c-0.443,0.491-1.056,0.815-1.942,0.815
		C171.748,19.426,170.753,18.729,170.753,17.459z M174.938,17.039v-0.324c-0.312-0.144-0.72-0.239-1.163-0.239
		c-0.78,0-1.26,0.312-1.26,0.887v0.024c0,0.492,0.408,0.779,0.996,0.779C174.363,18.166,174.938,17.698,174.938,17.039z"/>
	<path d="M178.48,17.482v-3.046h-0.768v-1.56h0.768v-1.643h1.823v1.643h1.511v1.56h-1.511v2.746c0,0.42,0.18,0.624,0.587,0.624
		c0.336,0,0.636-0.084,0.9-0.228v1.463c-0.384,0.228-0.828,0.372-1.439,0.372C179.236,19.414,178.48,18.97,178.48,17.482z"/>
	<path d="M182.776,17.459v-0.024c0-1.403,1.067-2.051,2.591-2.051c0.647,0,1.115,0.108,1.571,0.264V15.54
		c0-0.756-0.468-1.176-1.379-1.176c-0.696,0-1.188,0.132-1.775,0.348l-0.456-1.391c0.708-0.312,1.403-0.516,2.495-0.516
		c0.995,0,1.715,0.264,2.171,0.719c0.479,0.48,0.695,1.188,0.695,2.052v3.729h-1.763V18.61c-0.444,0.491-1.056,0.815-1.943,0.815
		C183.772,19.426,182.776,18.729,182.776,17.459z M186.963,17.039v-0.324c-0.312-0.144-0.72-0.239-1.164-0.239
		c-0.779,0-1.259,0.312-1.259,0.887v0.024c0,0.492,0.407,0.779,0.995,0.779C186.387,18.166,186.963,17.698,186.963,17.039z"/>
</g>
<g>
	<circle fill="#39ACE6" cx="15.35" cy="15.25" r="15.251"/>
	<g>
		<path fill="#F7F7F7" d="M15.438,11.162L15.438,11.162c1.662,0.011,2.931,0.48,3.326,0.646c0.618,0.281,0.621,0.414,0.576,0.723
			c-0.035,0.214-0.066,0.316-0.13,0.464c1.342,0.676,2.399,1.643,3.082,2.759c0.287-0.206,0.688-0.569,1.035-0.981
			c0.366-0.449,0.676-0.969,0.722-1.368c-0.402-1.575-3.769-4.705-8.61-4.63c-0.001,0-0.002,0-0.003,0
			c-4.842-0.074-8.208,3.055-8.61,4.63c0.045,0.399,0.354,0.919,0.721,1.366c0.347,0.414,0.75,0.777,1.033,0.983
			c0.685-1.118,1.742-2.083,3.086-2.76c-0.065-0.146-0.096-0.249-0.131-0.464c-0.047-0.308-0.041-0.439,0.574-0.722
			C12.505,11.643,13.774,11.172,15.438,11.162L15.438,11.162C15.436,11.162,15.437,11.162,15.438,11.162z"/>
		<circle fill="#F7F7F7" cx="15.623" cy="19.745" r="2.014"/>
		<path fill="#F7F7F7" d="M20.684,16.161c-1.119-1.392-3.011-2.312-5.162-2.312c-2.153,0-4.042,0.92-5.162,2.312
			c-0.026,0.035-0.056,0.068-0.081,0.104c-0.009,0.021-0.014,0.043-0.014,0.067c0,0.027,0.005,0.055,0.016,0.08
			c0.019,0.043,0.053,0.08,0.096,0.104l1.143,1.227l0.031,0.035c0.035,0.026,0.082,0.051,0.133,0.051
			c0.032,0,0.062-0.011,0.088-0.022c0.01-0.003,0.018-0.011,0.023-0.017c0.017-0.01,0.033-0.022,0.045-0.039
			c0.003-0.002,0.008-0.004,0.011-0.008c0.604-0.761,1.978-1.636,3.67-1.636c1.69,0,3.065,0.875,3.669,1.636
			c0.003,0.004,0.008,0.006,0.012,0.008c0.012,0.017,0.027,0.029,0.045,0.039c0.008,0.006,0.014,0.014,0.022,0.017
			c0.026,0.015,0.058,0.022,0.088,0.022c0.052,0,0.097-0.021,0.134-0.051l0.03-0.035l1.142-1.227
			c0.043-0.021,0.078-0.061,0.098-0.104c0.01-0.025,0.016-0.053,0.016-0.08c0-0.023-0.005-0.047-0.013-0.067
			C20.74,16.23,20.71,16.198,20.684,16.161z"/>
	</g>
</g>
</svg>
