<?xml version="1.0" encoding="utf-8"?>
<!-- Generator: Adobe Illustrator 16.0.3, SVG Export Plug-In . SVG Version: 6.00 Build 0)  -->
<!DOCTYPE svg PUBLIC "-//W3C//DTD SVG 1.1//EN" "http://www.w3.org/Graphics/SVG/1.1/DTD/svg11.dtd">
<svg version="1.1" id="Layer_1" xmlns="http://www.w3.org/2000/svg" xmlns:xlink="http://www.w3.org/1999/xlink" x="0px" y="0px"
	 width="100px" height="100px" viewBox="0 0 100 100" enable-background="new 0 0 100 100" xml:space="preserve">
<path stroke="#000000" stroke-width="0.5" stroke-miterlimit="10" d="M84.243,32.699h-2.151c-0.386-2.485-2.601-4.395-5.492-4.741
	c-0.706-6.193-2.855-11.332-6.729-15.079c-7.567-7.312-18.259-7.101-18.884-7.087c-0.607-0.014-11.326-0.225-18.895,7.092
	c-3.874,3.749-6.023,8.881-6.729,15.074c-2.887,0.346-5.108,2.255-5.494,4.741h-2.34c-0.706,0-1.284,0.578-1.284,1.284v9.02
	c0,0.706,0.578,1.283,1.284,1.283h2.34c0.421,2.741,3.053,4.896,6.354,4.896c3.599,0,6.526-2.511,6.526-5.598V33.406
	c0-2.577-2.075-4.656-4.841-5.308c0.662-5.518,2.566-10.063,5.954-13.355c6.346-6.15,15.531-6.385,16.904-6.385
	c0.211,0,0.186,0,0.215,0h0.051c0.131,0,10.243-0.235,17.07,6.38c3.388,3.292,5.291,7.843,5.953,13.361
	c-2.767,0.652-4.841,2.73-4.841,5.308v10.178c0,2.681,2.251,4.816,5.186,5.367c-0.219,2.918-1.691,11.373-10.183,15.121
	c-0.762-1.984-2.661-3.413-4.915-3.413h-5.267c-2.918,0-5.289,2.366-5.289,5.278c0,2.921,2.371,5.298,5.289,5.298h5.267
	c2.585,0,4.644-1.904,5.102-4.366c10.569-4.055,12.288-14.527,12.558-17.896c2.717-0.467,4.768-2.305,5.133-4.686h2.149
	c0.707,0,1.282-0.576,1.282-1.283v-9.021C85.525,33.275,84.95,32.699,84.243,32.699z M19.464,41.72h-0.652v-6.456h0.652V41.72z
	 M30.183,33.406v10.178c0,1.673-1.774,3.031-3.96,3.031c-2.179,0-3.954-1.358-3.954-3.031V33.406c0-1.674,1.775-3.032,3.954-3.032
	C28.409,30.374,30.183,31.732,30.183,33.406z M59.3,68.667h-5.266c-1.499,0-2.723-1.222-2.723-2.73c0-1.494,1.224-2.711,2.723-2.711
	H59.3c1.504,0,2.727,1.217,2.727,2.711C62.026,67.445,60.804,68.667,59.3,68.667z M79.693,43.584c0,1.673-1.775,3.031-3.955,3.031
	c-2.185,0-3.959-1.358-3.959-3.031V33.406c0-1.674,1.774-3.032,3.959-3.032c2.18,0,3.955,1.358,3.955,3.032V43.584z M82.961,41.72
	h-0.652v-6.456h0.652V41.72z"/>
</svg>
