<?xml version="1.0" encoding="utf-8"?>
<!-- Generator: Adobe Illustrator 16.0.3, SVG Export Plug-In . SVG Version: 6.00 Build 0)  -->
<!DOCTYPE svg PUBLIC "-//W3C//DTD SVG 1.1//EN" "http://www.w3.org/Graphics/SVG/1.1/DTD/svg11.dtd">
<svg version="1.1" id="Layer_1" xmlns="http://www.w3.org/2000/svg" xmlns:xlink="http://www.w3.org/1999/xlink" x="0px" y="0px"
	 width="100px" height="100px" viewBox="0 0 100 100" enable-background="new 0 0 100 100" xml:space="preserve">
<path d="M69.739,37.997v8.469c0,0.454-0.15,0.756-0.453,1.058l-1.513,1.361c-6.351,6.502-12.702,9.831-19.205,9.831
	c-4.083,0-8.166-1.361-12.098-3.933v-3.78c4.083,3.024,8.166,4.688,12.098,4.688c5.596,0,11.342-3.024,17.089-8.922l1.059-1.059
	v-5.746L69.739,37.997z"/>
<path d="M33.446,48.431v4.083c-1.361-1.059-2.571-2.268-3.932-3.629l-1.664-1.361c-0.302-0.302-0.453-0.756-0.453-1.209v-8.62
	l3.024,1.966v5.898l1.209,0.907l0.151,0.151C32.236,47.373,32.841,47.977,33.446,48.431z"/>
<g>
	<path d="M79.569,29.226c0,1.361-0.604,2.722-1.815,3.327l-8.015,5.444l-3.023,1.966L50.988,50.397
		c-0.605,0.454-1.361,0.605-2.269,0.605c-0.756,0-1.512-0.303-2.117-0.605l-10.132-6.654v-3.629l11.795,7.712
		c0.302,0.151,0.756,0.151,1.058,0l17.392-11.493l3.023-1.966l6.352-4.234c0.454-0.302,0.454-0.604,0.454-0.756s0-0.605-0.454-0.756
		L49.173,12.137c-0.151-0.151-0.303-0.151-0.454-0.151c-0.151,0-0.302,0-0.454,0.151L21.197,28.47
		c-0.454,0.302-0.454,0.604-0.454,0.756c0,0.151,0,0.605,0.454,0.756l6.2,4.234l6.049,3.932v3.629l-3.024-1.966l-3.024-1.965
		l-7.864-5.142c-1.21-0.756-1.815-1.966-1.815-3.327c0-1.36,0.756-2.57,1.966-3.327L46.603,9.566c1.209-0.756,2.873-0.756,4.083,0
		l26.918,16.333C78.813,26.655,79.569,27.865,79.569,29.226z"/>
</g>
<path d="M49.476,29.679l-2.117,1.512l-10.888,7.107v19.055c-0.454-0.151-1.059-0.151-1.512-0.151c-0.454,0-1.059,0-1.512,0.151
	V37.543c0-0.454,0.302-1.059,0.605-1.21l7.712-5.142l4.537-3.024l1.361-0.907c0.756-0.454,1.663-0.302,2.117,0.454
	c0.151,0.151,0.151,0.303,0.151,0.454C50.232,28.772,49.929,29.376,49.476,29.679z"/>
<path d="M36.471,57.354c-0.454-0.151-1.059-0.151-1.512-0.151c-0.454,0-1.059,0-1.512,0.151c-2.571,0.604-4.537,3.024-4.537,5.897
	c0,3.326,2.722,6.049,6.049,6.049c3.327,0,6.049-2.723,6.049-6.049C41.007,60.378,39.042,58.109,36.471,57.354z M34.958,66.275
	c-1.664,0-3.024-1.361-3.024-3.024c0-1.059,0.605-2.117,1.512-2.571c0.454-0.302,0.907-0.453,1.512-0.453
	c0.604,0,1.059,0.151,1.512,0.453c0.907,0.605,1.512,1.513,1.512,2.571C37.983,64.914,36.622,66.275,34.958,66.275z"/>
</svg>
